<svg width="82" height="82" viewBox="0 0 82 82" fill="none" xmlns="http://www.w3.org/2000/svg">
<g id="database server">
<path id="Vector" d="M57.154 24.6137C56.8768 23.812 56.3566 23.1167 55.6659 22.6244C54.9752 22.1321 54.1482 21.8672 53.3 21.8667H51.9333V19.1333H53.3C54.3864 19.1301 55.4274 18.6971 56.1956 17.9289C56.9638 17.1607 57.3968 16.1197 57.4 15.0333V4.1C57.3968 3.01361 56.9638 1.97264 56.1956 1.20445C55.4274 0.43625 54.3864 0.00324459 53.3 0H4.1C3.01361 0.00324459 1.97264 0.43625 1.20445 1.20445C0.43625 1.97264 0.00324459 3.01361 0 4.1V15.0333C0.00324459 16.1197 0.43625 17.1607 1.20445 17.9289C1.97264 18.6971 3.01361 19.1301 4.1 19.1333H5.46667V21.8667H4.1C3.01361 21.8699 1.97264 22.3029 1.20445 23.0711C0.43625 23.8393 0.00324459 24.8803 0 25.9667V36.9C0.00324459 37.9864 0.43625 39.0274 1.20445 39.7956C1.97264 40.5638 3.01361 40.9968 4.1 41H5.46667V43.7333H4.1C3.01361 43.7366 1.97264 44.1696 1.20445 44.9378C0.43625 45.706 0.00324459 46.7469 0 47.8333V58.7667C0.00324459 59.8531 0.43625 60.894 1.20445 61.6622C1.97264 62.4304 3.01361 62.8634 4.1 62.8667H30.0667V73.8C30.0667 79.1847 43.132 82 56.0333 82C68.9347 82 82 79.1847 82 73.8V32.8C82 27.5657 69.6863 24.7777 57.154 24.6137ZM4.1 16.4C3.73754 16.4 3.38992 16.256 3.13362 15.9997C2.87732 15.7434 2.73333 15.3958 2.73333 15.0333V4.1C2.73333 3.73754 2.87732 3.38992 3.13362 3.13362C3.38992 2.87732 3.73754 2.73333 4.1 2.73333H53.3C53.6625 2.73333 54.0101 2.87732 54.2664 3.13362C54.5227 3.38992 54.6667 3.73754 54.6667 4.1V15.0333C54.6667 15.3958 54.5227 15.7434 54.2664 15.9997C54.0101 16.256 53.6625 16.4 53.3 16.4H4.1ZM49.2 19.1333V21.8667H43.7333V19.1333H49.2ZM41 19.1333V21.8667H16.4V19.1333H41ZM13.6667 19.1333V21.8667H8.2V19.1333H13.6667ZM30.0667 60.1333H4.1C3.73754 60.1333 3.38992 59.9893 3.13362 59.733C2.87732 59.4767 2.73333 59.1291 2.73333 58.7667V47.8333C2.73333 47.4709 2.87732 47.1233 3.13362 46.867C3.38992 46.6107 3.73754 46.4667 4.1 46.4667H30.0667V60.1333ZM8.2 43.7333V41H13.6667V43.7333H8.2ZM30.0667 43.7333H16.4V41H30.0667V43.7333ZM30.0667 32.8V38.2667H4.1C3.73754 38.2667 3.38992 38.1227 3.13362 37.8664C2.87732 37.6101 2.73333 37.2625 2.73333 36.9V25.9667C2.73333 25.6042 2.87732 25.2566 3.13362 25.0003C3.38992 24.744 3.73754 24.6 4.1 24.6H53.3C53.365 24.6071 53.4291 24.6208 53.4913 24.641C41.4647 24.9827 30.0667 27.7707 30.0667 32.8ZM79.2667 73.8C79.2667 75.6587 71.0667 79.2667 56.0333 79.2667C41 79.2667 32.8 75.6587 32.8 73.8V63.9873C37.2963 66.8437 46.6853 68.3333 56.0333 68.3333C65.3813 68.3333 74.7703 66.8437 79.2667 63.9873V73.8ZM79.2667 60.1333C79.2667 61.992 71.0667 65.6 56.0333 65.6C41 65.6 32.8 61.992 32.8 60.1333V50.3207C37.2963 53.177 46.6853 54.6667 56.0333 54.6667C65.3813 54.6667 74.7703 53.177 79.2667 50.3207V60.1333ZM79.2667 46.4667C79.2667 48.3253 71.0667 51.9333 56.0333 51.9333C41 51.9333 32.8 48.3253 32.8 46.4667V36.654C37.2963 39.5103 46.6853 41 56.0333 41C65.3813 41 74.7703 39.5103 79.2667 36.654V46.4667ZM56.0333 38.2667C41 38.2667 32.8 34.6587 32.8 32.8C32.8 30.9413 41 27.3333 56.0333 27.3333C71.0667 27.3333 79.2667 30.9413 79.2667 32.8C79.2667 34.6587 71.0667 38.2667 56.0333 38.2667Z" fill="black"/>
<path id="Vector_2" d="M54.6667 45.1H57.4V47.8333H54.6667V45.1Z" fill="black"/>
<path id="Vector_3" d="M54.6667 60.1334H57.4V62.8667H54.6667V60.1334Z" fill="black"/>
<path id="Vector_4" d="M54.6667 72.4333H57.4V75.1667H54.6667V72.4333Z" fill="black"/>
<path id="Vector_5" d="M12.3 27.3333H6.83334C6.47088 27.3333 6.12326 27.4773 5.86696 27.7336C5.61066 27.9899 5.46667 28.3375 5.46667 28.7V34.1666C5.46667 34.5291 5.61066 34.8767 5.86696 35.133C6.12326 35.3893 6.47088 35.5333 6.83334 35.5333H12.3C12.6625 35.5333 13.0101 35.3893 13.2664 35.133C13.5227 34.8767 13.6667 34.5291 13.6667 34.1666V28.7C13.6667 28.3375 13.5227 27.9899 13.2664 27.7336C13.0101 27.4773 12.6625 27.3333 12.3 27.3333ZM10.9333 32.8H8.20001V30.0666H10.9333V32.8Z" fill="black"/>
<path id="Vector_6" d="M23.2333 27.3333H17.7667C17.4042 27.3333 17.0566 27.4773 16.8003 27.7336C16.544 27.9899 16.4 28.3375 16.4 28.7V34.1666C16.4 34.5291 16.544 34.8767 16.8003 35.133C17.0566 35.3893 17.4042 35.5333 17.7667 35.5333H23.2333C23.5958 35.5333 23.9434 35.3893 24.1997 35.133C24.456 34.8767 24.6 34.5291 24.6 34.1666V28.7C24.6 28.3375 24.456 27.9899 24.1997 27.7336C23.9434 27.4773 23.5958 27.3333 23.2333 27.3333ZM21.8667 32.8H19.1333V30.0666H21.8667V32.8Z" fill="black"/>
<path id="Vector_7" d="M12.3 5.46667H6.83334C6.47088 5.46667 6.12326 5.61066 5.86696 5.86696C5.61066 6.12326 5.46667 6.47088 5.46667 6.83334V12.3C5.46667 12.6625 5.61066 13.0101 5.86696 13.2664C6.12326 13.5227 6.47088 13.6667 6.83334 13.6667H12.3C12.6625 13.6667 13.0101 13.5227 13.2664 13.2664C13.5227 13.0101 13.6667 12.6625 13.6667 12.3V6.83334C13.6667 6.47088 13.5227 6.12326 13.2664 5.86696C13.0101 5.61066 12.6625 5.46667 12.3 5.46667ZM10.9333 10.9333H8.20001V8.20001H10.9333V10.9333Z" fill="black"/>
<path id="Vector_8" d="M23.2333 5.46667H17.7667C17.4042 5.46667 17.0566 5.61066 16.8003 5.86696C16.544 6.12326 16.4 6.47088 16.4 6.83334V12.3C16.4 12.6625 16.544 13.0101 16.8003 13.2664C17.0566 13.5227 17.4042 13.6667 17.7667 13.6667H23.2333C23.5958 13.6667 23.9434 13.5227 24.1997 13.2664C24.456 13.0101 24.6 12.6625 24.6 12.3V6.83334C24.6 6.47088 24.456 6.12326 24.1997 5.86696C23.9434 5.61066 23.5958 5.46667 23.2333 5.46667ZM21.8667 10.9333H19.1333V8.20001H21.8667V10.9333Z" fill="black"/>
<path id="Vector_9" d="M27.3333 5.46667H46.4666V8.20001H27.3333V5.46667Z" fill="black"/>
<path id="Vector_10" d="M49.2 5.46667H51.9333V8.20001H49.2V5.46667Z" fill="black"/>
<path id="Vector_11" d="M27.3333 10.9333H46.4666V13.6667H27.3333V10.9333Z" fill="black"/>
<path id="Vector_12" d="M49.2 10.9333H51.9333V13.6667H49.2V10.9333Z" fill="black"/>
<path id="Vector_13" d="M12.3 49.2H6.83334C6.47088 49.2 6.12326 49.344 5.86696 49.6003C5.61066 49.8566 5.46667 50.2042 5.46667 50.5667V56.0333C5.46667 56.3958 5.61066 56.7434 5.86696 56.9997C6.12326 57.256 6.47088 57.4 6.83334 57.4H12.3C12.6625 57.4 13.0101 57.256 13.2664 56.9997C13.5227 56.7434 13.6667 56.3958 13.6667 56.0333V50.5667C13.6667 50.2042 13.5227 49.8566 13.2664 49.6003C13.0101 49.344 12.6625 49.2 12.3 49.2ZM10.9333 54.6667H8.20001V51.9333H10.9333V54.6667Z" fill="black"/>
<path id="Vector_14" d="M23.2333 49.2H17.7667C17.4042 49.2 17.0566 49.344 16.8003 49.6003C16.544 49.8566 16.4 50.2042 16.4 50.5667V56.0333C16.4 56.3958 16.544 56.7434 16.8003 56.9997C17.0566 57.256 17.4042 57.4 17.7667 57.4H23.2333C23.5958 57.4 23.9434 57.256 24.1997 56.9997C24.456 56.7434 24.6 56.3958 24.6 56.0333V50.5667C24.6 50.2042 24.456 49.8566 24.1997 49.6003C23.9434 49.344 23.5958 49.2 23.2333 49.2ZM21.8667 54.6667H19.1333V51.9333H21.8667V54.6667Z" fill="black"/>
</g>
</svg>
