<svg width="82" height="82" viewBox="0 0 82 82" fill="none" xmlns="http://www.w3.org/2000/svg">
<path d="M49.0078 13.293C48.1238 13.293 47.4062 14.0105 47.4062 14.8945C47.4062 15.7786 48.1238 16.4961 49.0078 16.4961C49.8919 16.4961 50.6094 15.7786 50.6094 14.8945C50.6094 14.0105 49.8919 13.293 49.0078 13.293Z" fill="black"/>
<path d="M32.9922 13.293C32.1081 13.293 31.3906 14.0105 31.3906 14.8945C31.3906 15.7786 32.1081 16.4961 32.9922 16.4961C33.8763 16.4961 34.5938 15.7786 34.5938 14.8945C34.5938 14.0105 33.8763 13.293 32.9922 13.293Z" fill="black"/>
<path d="M75.7736 47.8678C77.1482 45.8047 77.8359 43.2305 77.8359 41C77.8359 37.6374 76.3422 34.5132 73.7789 32.3946C74.3461 31.0391 74.6328 29.6292 74.6328 28.1875C74.6328 23.7263 72.0293 19.5706 68.1585 17.63C68.7458 12.759 65.5718 8.29417 60.8682 7.1553C59.0272 2.89947 54.9296 0 50.6094 0C46.5879 0 42.981 2.34565 41 5.76819C39.0189 2.34565 35.412 0 31.3906 0C27.0701 0 22.9725 2.89947 21.1318 7.15546C16.4 8.30154 13.2558 12.7886 13.8415 17.63C9.97085 19.5705 7.36719 23.7263 7.36719 28.1875C7.36719 29.6292 7.65387 31.0391 8.22114 32.3946C5.65784 34.5134 4.16406 37.6374 4.16406 41C4.16406 43.2422 4.85754 45.813 6.22639 47.8677C4.88877 49.7559 4.16406 51.9938 4.16406 54.293C4.16406 57.2744 5.37292 60.1147 7.51117 62.2236C6.41186 68.8688 11.7114 75.5938 18.5781 75.5938C18.6278 75.5938 18.6766 75.5929 18.7245 75.5915C21.0011 79.5189 25.227 82 29.7891 82C34.5438 82 38.7924 79.146 41 75.0342C43.2076 79.146 47.4562 82 52.2109 82C56.773 82 60.9989 79.5189 63.2755 75.5915C63.3235 75.5929 63.3722 75.5938 63.4219 75.5938C69.4988 75.5938 74.6328 70.2397 74.6328 63.9023C74.6328 63.3628 74.5854 62.8078 74.4888 62.2236C76.6271 60.1147 77.8359 57.2746 77.8359 54.293C77.8359 51.9938 77.1112 49.7559 75.7736 47.8678ZM39.3984 24.2446C38.4554 23.6977 37.3617 23.3828 36.1953 23.3828C35.3108 23.3828 34.5938 24.0998 34.5938 24.9844C34.5938 25.8689 35.3108 26.5859 36.1953 26.5859C37.9615 26.5859 39.3984 28.0229 39.3984 29.7891V60.2458C37.0488 57.5807 33.6131 55.8945 29.7891 55.8945C28.9045 55.8945 28.1875 56.6115 28.1875 57.4961C28.1875 58.3806 28.9045 59.0977 29.7891 59.0977C35.0877 59.0977 39.3984 63.4084 39.3984 68.707C39.3984 74.1762 34.9978 78.7969 29.7891 78.7969C26.0811 78.7969 22.6677 76.6042 21.0927 73.2106C20.8024 72.5852 20.1448 72.2164 19.4591 72.2936C19.3459 72.3065 19.2333 72.3216 19.1207 72.337C14.5627 72.9603 9.42968 67.799 10.8192 62.025C10.9619 61.4319 10.7553 60.8096 10.2865 60.4194C8.43127 58.8757 7.36719 56.6426 7.36719 54.293C7.36719 52.8402 7.77799 51.4185 8.54241 50.1718C10.4633 51.7462 12.8527 52.6914 15.375 52.6914C16.2595 52.6914 16.9766 51.9744 16.9766 51.0898C16.9766 50.2053 16.2595 49.4883 15.375 49.4883C11.0285 49.4883 7.36719 45.5212 7.36719 41C7.36719 38.2573 8.76519 35.7342 11.1072 34.2507C11.8287 33.7936 12.0646 32.8508 11.6432 32.1078C10.9313 30.8523 10.5703 29.5333 10.5703 28.1875C10.5703 23.8649 14.0941 19.6992 18.5781 19.6992C22.844 19.6992 26.5859 23.6658 26.5859 28.1875C26.5859 29.072 27.303 29.7891 28.1875 29.7891C29.072 29.7891 29.7891 29.072 29.7891 28.1875C29.7891 21.8501 24.6551 16.4961 18.5781 16.4961C18.0419 16.4961 17.5086 16.5395 16.9806 16.6217C16.9798 16.5795 16.9766 16.5385 16.9766 16.4961C16.9766 12.9219 19.8781 10.0898 23.3828 10.0898C25.0936 10.0898 26.7029 10.7563 27.914 11.9661C28.5397 12.5912 29.5536 12.5905 30.1789 11.965C30.804 11.3391 30.8035 10.3251 30.1778 9.70002C28.7167 8.24052 26.8686 7.30969 24.8659 7.00123C26.2783 4.90462 28.627 3.20312 31.3906 3.20312C35.6565 3.20312 39.3984 7.16955 39.3984 11.6914V24.2446ZM66.625 52.6914C69.1475 52.6914 71.5368 51.746 73.4577 50.1723C74.222 51.4188 74.6328 52.8404 74.6328 54.293C74.6328 56.6426 73.5687 58.8757 71.7136 60.4194C71.2447 60.8096 71.0383 61.4321 71.181 62.025C71.3507 62.7302 71.4297 63.3267 71.4297 63.9022C71.4297 68.8734 66.9333 72.8911 62.8794 72.337C62.7668 72.3216 62.6541 72.3064 62.5409 72.2936C61.8543 72.2159 61.1975 72.5852 60.9074 73.2106C59.3324 76.6042 55.9187 78.7969 52.2109 78.7969C47.0022 78.7969 42.6016 74.1762 42.6016 68.707C42.6016 63.4084 46.9123 59.0977 52.2109 59.0977C53.0953 59.0977 53.8125 58.3806 53.8125 57.4961C53.8125 56.6115 53.0953 55.8945 52.2109 55.8945C48.3869 55.8945 44.9512 57.5807 42.6016 60.2458V29.7891C42.6016 28.0229 44.0385 26.5859 45.8047 26.5859C46.6891 26.5859 47.4062 25.8689 47.4062 24.9844C47.4062 24.0998 46.6891 23.3828 45.8047 23.3828C44.6383 23.3828 43.5446 23.6977 42.6016 24.2446V11.6914C42.6016 7.16955 46.3435 3.20312 50.6094 3.20312C53.373 3.20312 55.7216 4.90462 57.134 7.00107C55.1314 7.30953 53.2835 8.24036 51.8222 9.69986C51.1963 10.325 51.1957 11.3389 51.8208 11.9648C52.4459 12.5907 53.4602 12.5912 54.0857 11.9661C55.2973 10.7563 56.9064 10.0898 58.6172 10.0898C62.1395 10.0898 65.0234 12.9385 65.0234 16.4961C65.0234 16.5384 65.0202 16.5795 65.0194 16.6217C64.4914 16.5395 63.9581 16.4961 63.4219 16.4961C57.3449 16.4961 52.2109 21.8501 52.2109 28.1875C52.2109 29.072 52.9281 29.7891 53.8125 29.7891C54.6969 29.7891 55.4141 29.072 55.4141 28.1875C55.4141 23.6658 59.156 19.6992 63.4219 19.6992C67.9034 19.6992 71.4297 23.8628 71.4297 28.1875C71.4297 29.5333 71.0687 30.8523 70.3568 32.1078C69.9356 32.8508 70.1715 33.7936 70.893 34.2507C73.2348 35.7342 74.6328 38.2573 74.6328 41C74.6328 45.5374 70.9587 49.4883 66.625 49.4883C65.7406 49.4883 65.0234 50.2053 65.0234 51.0898C65.0234 51.9744 65.7406 52.6914 66.625 52.6914Z" fill="black"/>
<path d="M35.7874 34.2819C35.1977 33.6227 34.1853 33.5663 33.526 34.156C28.3901 38.7501 20.1797 35.0785 20.1797 28.1875C20.1797 27.303 19.4627 26.5859 18.5781 26.5859C17.6936 26.5859 16.9766 27.303 16.9766 28.1875C16.9766 33.7473 21.0457 38.3726 26.3617 39.2474C25.7451 41.1898 23.9251 42.6016 21.7812 42.6016C20.8967 42.6016 20.1797 43.3186 20.1797 44.2031C20.1797 45.0877 20.8967 45.8047 21.7812 45.8047C25.6822 45.8047 28.9386 43.0004 29.6452 39.302C31.8725 39.0107 33.9688 38.0576 35.6615 36.5433C36.3207 35.9536 36.3771 34.9411 35.7874 34.2819Z" fill="black"/>
<path d="M18.5781 62.3008C17.6936 62.3008 16.9766 63.0178 16.9766 63.9023C16.9766 64.7869 17.6936 65.5039 18.5781 65.5039C22.844 65.5039 26.5859 69.4705 26.5859 73.9922C26.5859 74.8767 27.303 75.5938 28.1875 75.5938C29.072 75.5938 29.7891 74.8767 29.7891 73.9922C29.7891 67.6548 24.6551 62.3008 18.5781 62.3008Z" fill="black"/>
<path d="M31.3906 49.4883C25.9635 49.4883 21.3039 52.4648 18.8504 56.7927C18.4142 57.5622 18.6844 58.5397 19.4538 58.9758C20.2234 59.4119 21.2006 59.1419 21.6369 58.3723C23.5484 55.0001 27.1753 52.6914 31.3906 52.6914C32.2751 52.6914 32.9922 51.9744 32.9922 51.0898C32.9922 50.2053 32.2751 49.4883 31.3906 49.4883Z" fill="black"/>
<path d="M60.2187 42.6016C58.0749 42.6016 56.2548 41.1898 55.6382 39.2474C60.9543 38.3726 65.0234 33.7473 65.0234 28.1875C65.0234 27.303 64.3062 26.5859 63.4218 26.5859C62.5375 26.5859 61.8203 27.303 61.8203 28.1875C61.8203 32.603 58.228 36.1953 53.8125 36.1953C51.84 36.1953 49.9442 35.4711 48.474 34.156C47.8149 33.5663 46.8023 33.6226 46.2126 34.2819C45.6227 34.9411 45.6793 35.9536 46.3385 36.5433C48.0312 38.0576 50.1276 39.0107 52.3547 39.302C53.0613 43.0004 56.3178 45.8047 60.2187 45.8047C61.1031 45.8047 61.8203 45.0877 61.8203 44.2031C61.8203 43.3186 61.1031 42.6016 60.2187 42.6016Z" fill="black"/>
<path d="M63.4219 62.3008C57.3449 62.3008 52.2109 67.6548 52.2109 73.9922C52.2109 74.8767 52.9281 75.5938 53.8125 75.5938C54.6969 75.5938 55.4141 74.8767 55.4141 73.9922C55.4141 69.4705 59.156 65.5039 63.4219 65.5039C64.3063 65.5039 65.0234 64.7869 65.0234 63.9023C65.0234 63.0178 64.3063 62.3008 63.4219 62.3008Z" fill="black"/>
<path d="M63.1496 56.7928C60.7021 52.4752 56.0489 49.4883 50.6094 49.4883C49.725 49.4883 49.0078 50.2053 49.0078 51.0898C49.0078 51.9744 49.725 52.6914 50.6094 52.6914C54.8216 52.6914 58.4513 54.9994 60.3627 58.3723C60.7995 59.1428 61.7775 59.4116 62.5458 58.9759C63.3154 58.5398 63.5856 57.5624 63.1496 56.7928Z" fill="black"/>
</svg>
