<svg width="155" height="33" viewBox="0 0 155 33" fill="none" xmlns="http://www.w3.org/2000/svg">
<path fill-rule="evenodd" clip-rule="evenodd" d="M61 16.3636C61 7.32625 68.3262 0 77.3636 0C86.401 0 93.7273 7.32625 93.7273 16.3636C93.7273 25.401 86.401 32.7273 77.3636 32.7273C68.3262 32.7273 61 25.401 61 16.3636Z" fill="#FBFDFF"/>
<path fill-rule="evenodd" clip-rule="evenodd" d="M76.8736 13.3006L76.9079 13.8668L76.3356 13.7975C74.2524 13.5317 72.4325 12.6304 70.8873 11.1166L70.1318 10.3655L69.9373 10.9202C69.5252 12.1566 69.7885 13.4624 70.6469 14.3406C71.1048 14.8259 71.0017 14.8953 70.212 14.6064C69.9373 14.5139 69.6969 14.4446 69.674 14.4793C69.5939 14.5602 69.8686 15.6117 70.0861 16.0277C70.3837 16.6055 70.9903 17.1717 71.6542 17.5068L72.215 17.7726L71.5512 17.7842C70.9102 17.7842 70.8873 17.7957 70.956 18.0384C71.1849 18.7895 72.0891 19.5868 73.0964 19.9335L73.806 20.1761L73.1879 20.5459C72.2723 21.0775 71.1963 21.3779 70.1204 21.401C69.6053 21.4126 69.1818 21.4588 69.1818 21.4935C69.1818 21.609 70.5782 22.2561 71.3909 22.5103C73.8289 23.2615 76.7248 22.9379 78.8995 21.6552C80.4447 20.7424 81.9899 18.9281 82.711 17.1717C83.1002 16.2357 83.4894 14.5255 83.4894 13.7051C83.4894 13.1735 83.5237 13.1042 84.1647 12.4686C84.5424 12.0989 84.8972 11.6944 84.9659 11.5789C85.0804 11.3593 85.0689 11.3593 84.4852 11.5557C83.5122 11.9024 83.3749 11.8562 83.8556 11.3362C84.2105 10.9664 84.634 10.2962 84.634 10.0998C84.634 10.0651 84.4623 10.1229 84.2677 10.2269C84.0617 10.3424 83.6038 10.5158 83.2604 10.6198L82.6424 10.8162L82.0815 10.4349C81.7725 10.2269 81.3375 9.99576 81.1086 9.92642C80.5248 9.76465 79.632 9.78776 79.1055 9.97264C77.6748 10.4926 76.7705 11.8331 76.8736 13.3006Z" fill="#026DC6"/>
<path fill-rule="evenodd" clip-rule="evenodd" d="M122 16.3636C122 7.32625 129.326 0 138.364 0C147.401 0 154.727 7.32625 154.727 16.3636C154.727 25.401 147.401 32.7273 138.364 32.7273C129.326 32.7273 122 25.401 122 16.3636Z" fill="#FFFAFA"/>
<path fill-rule="evenodd" clip-rule="evenodd" d="M135.388 17.6728V15.8961H140.305C140.35 16.1552 140.387 16.4143 140.387 16.7548C140.387 19.7159 138.393 21.8182 135.388 21.8182C132.51 21.8182 130.182 19.5012 130.182 16.6364C130.182 13.7716 132.51 11.4546 135.388 11.4546C136.794 11.4546 137.969 11.9654 138.877 12.8093L137.464 14.1639C137.077 13.7938 136.4 13.3645 135.388 13.3645C133.611 13.3645 132.16 14.8302 132.16 16.6364C132.16 18.4426 133.611 19.9084 135.388 19.9084C137.449 19.9084 138.222 18.4352 138.341 17.6728H135.388ZM145.058 15.8961H146.545V17.3766H145.058V18.8572H143.57V17.3766H142.083V15.8961H143.57V14.4156H145.058V15.8961Z" fill="#016DC6"/>
<path fill-rule="evenodd" clip-rule="evenodd" d="M0 16.3636C0 7.32625 7.32625 0 16.3636 0C25.401 0 32.7273 7.32625 32.7273 16.3636C32.7273 25.401 25.401 32.7273 16.3636 32.7273C7.32625 32.7273 0 25.401 0 16.3636Z" fill="#FFFAFA"/>
<path fill-rule="evenodd" clip-rule="evenodd" d="M18.0692 25.985V17.0824H20.5268L20.8524 14.0144H18.0692L18.0734 12.4789C18.0734 11.6788 18.1494 11.25 19.2987 11.25H20.835V8.18176H18.3772C15.4249 8.18176 14.3857 9.67003 14.3857 12.1728V14.0148H12.5454V17.0827H14.3857V25.985H18.0692Z" fill="#026DC6"/>
</svg>
