<svg width="155" height="33" viewBox="0 0 155 33" fill="none" xmlns="http://www.w3.org/2000/svg">
<g id="Group 142">
<g id="Twitter">
<path id="back" fill-rule="evenodd" clip-rule="evenodd" d="M61 16.3636C61 7.32625 68.3262 0 77.3636 0C86.401 0 93.7273 7.32625 93.7273 16.3636C93.7273 25.401 86.401 32.7273 77.3636 32.7273C68.3262 32.7273 61 25.401 61 16.3636Z" fill="#0381E8"/>
<path id="Shape" fill-rule="evenodd" clip-rule="evenodd" d="M76.8736 13.3006L76.908 13.8668L76.3357 13.7974C74.2525 13.5317 72.4326 12.6303 70.8873 11.1166L70.1319 10.3655L69.9373 10.9201C69.5253 12.1566 69.7885 13.4623 70.647 14.3406C71.1048 14.8259 71.0018 14.8952 70.212 14.6063C69.9373 14.5139 69.697 14.4446 69.6741 14.4792C69.5939 14.5601 69.8686 15.6117 70.0861 16.0277C70.3837 16.6054 70.9904 17.1717 71.6542 17.5068L72.2151 17.7725L71.5512 17.7841C70.9102 17.7841 70.8873 17.7956 70.956 18.0383C71.1849 18.7894 72.0892 19.5867 73.0964 19.9334L73.8061 20.1761L73.188 20.5459C72.2723 21.0774 71.1964 21.3778 70.1205 21.401C69.6054 21.4125 69.1819 21.4587 69.1819 21.4934C69.1819 21.609 70.5783 22.2561 71.391 22.5103C73.829 23.2614 76.7248 22.9378 78.8996 21.6552C80.4448 20.7423 81.99 18.9281 82.7111 17.1717C83.1003 16.2357 83.4894 14.5254 83.4894 13.705C83.4894 13.1735 83.5238 13.1041 84.1647 12.4686C84.5425 12.0988 84.8973 11.6944 84.966 11.5788C85.0804 11.3592 85.069 11.3592 84.4852 11.5557C83.5123 11.9023 83.375 11.8561 83.8557 11.3361C84.2105 10.9664 84.634 10.2961 84.634 10.0997C84.634 10.065 84.4623 10.1228 84.2677 10.2268C84.0617 10.3424 83.6039 10.5157 83.2605 10.6197L82.6424 10.8161L82.0816 10.4348C81.7725 10.2268 81.3376 9.99569 81.1086 9.92636C80.5249 9.76458 79.6321 9.7877 79.1056 9.97258C77.6748 10.4926 76.7706 11.833 76.8736 13.3006Z" fill="#FBFDFF"/>
</g>
<g id="Google +">
<path id="back_2" fill-rule="evenodd" clip-rule="evenodd" d="M122 16.3636C122 7.32625 129.326 0 138.364 0C147.401 0 154.727 7.32625 154.727 16.3636C154.727 25.401 147.401 32.7273 138.364 32.7273C129.326 32.7273 122 25.401 122 16.3636Z" fill="#0381E8"/>
<path id="Combined Shape" fill-rule="evenodd" clip-rule="evenodd" d="M135.388 17.6727V15.8961H140.305C140.35 16.1552 140.387 16.4143 140.387 16.7548C140.387 19.7159 138.393 21.8182 135.388 21.8182C132.51 21.8182 130.182 19.5012 130.182 16.6364C130.182 13.7716 132.51 11.4546 135.388 11.4546C136.794 11.4546 137.969 11.9653 138.877 12.8092L137.464 14.1639C137.077 13.7938 136.4 13.3644 135.388 13.3644C133.611 13.3644 132.16 14.8301 132.16 16.6364C132.16 18.4426 133.611 19.9083 135.388 19.9083C137.449 19.9083 138.222 18.4352 138.341 17.6727H135.388ZM145.058 15.8961H146.546V17.3766H145.058V18.8571H143.57V17.3766H142.083V15.8961H143.57V14.4156H145.058V15.8961Z" fill="#FCFEFF"/>
</g>
<g id="Facebook">
<path id="back_3" fill-rule="evenodd" clip-rule="evenodd" d="M0 16.3636C0 7.32625 7.32625 0 16.3636 0C25.401 0 32.7273 7.32625 32.7273 16.3636C32.7273 25.401 25.401 32.7273 16.3636 32.7273C7.32625 32.7273 0 25.401 0 16.3636Z" fill="#0381E8"/>
<path id="Shape_2" fill-rule="evenodd" clip-rule="evenodd" d="M18.0692 25.9851V17.0824H20.5267L20.8524 14.0145H18.0692L18.0734 12.479C18.0734 11.6788 18.1494 11.2501 19.2987 11.2501H20.835V8.18182H18.3771C15.4248 8.18182 14.3857 9.67009 14.3857 12.1729V14.0149H12.5454V17.0828H14.3857V25.9851H18.0692Z" fill="#FBFDFF"/>
</g>
</g>
</svg>
